<svg xmlns="http://www.w3.org/2000/svg" width="25.89" height="48.15" viewBox="0 0 25.89 48.15"><defs><style>.a{fill:#434343;font-size:12px;font-family:SFUIDisplay-Medium, SF UI Display;font-weight:500;}</style></defs><g transform="translate(-1519 -42.85)"><path d="M-1354.8-18.833a3.316,3.316,0,0,1-3.548-3.524c-.005-3.3,0-6.591,0-10.24v-2.3c0-.954.367-1.327,1.311-1.328l2.247,0h2.188a7.23,7.23,0,0,1,2.057-4.709,7.406,7.406,0,0,1,5.141-2.22h.005a7.507,7.507,0,0,1,5.13,2.216,7.232,7.232,0,0,1,2.062,4.713h4.392c.985,0,1.353.363,1.353,1.332v2.8c0,2.947,0,6.372,0,9.737a3.318,3.318,0,0,1-3.552,3.521H-1354.8Zm-1.473-3.568c0,1.025.471,1.5,1.479,1.507,2.274,0,5.835.006,9.3.006,3.838,0,7.384,0,9.483-.007,1.007,0,1.476-.481,1.476-1.509V-34.158h-3.7v.428c0,.468,0,.951-.01,1.431a1.5,1.5,0,0,1-.326.87.855.855,0,0,1-.641.289l-.058,0a.85.85,0,0,1-.614-.226,1.357,1.357,0,0,1-.4-.895c-.013-.58-.013-1.14-.012-1.812v-.088h-10.217v.121c0,.533,0,1.015-.005,1.508,0,.028,0,.06,0,.094v.031a1.207,1.207,0,0,1-.261.96,1.009,1.009,0,0,1-.765.3h-.006a1.013,1.013,0,0,1-.766-.3,1.213,1.213,0,0,1-.26-.959v-.014c0-.045.005-.083,0-.113-.012-.53-.01-1.066-.007-1.615v-.013h-3.7Zm8.068-17.82a4.885,4.885,0,0,0-2.3,3.976h10.188a4.831,4.831,0,0,0-2.336-4,5.152,5.152,0,0,0-2.763-.876A5.146,5.146,0,0,0-1348.209-40.221Z" transform="translate(2877.356 86)"/><text class="a" transform="translate(1520 88)"><tspan x="0" y="0">BAG</tspan></text></g></svg>