<svg xmlns="http://www.w3.org/2000/svg" width="58" height="48" viewBox="0 0 58 48"><defs><style>.a{fill:#434343;font-size:12px;font-family:SFUIDisplay-Medium, SF UI Display;font-weight:500;}</style></defs><g transform="translate(-1429 -43)"><path d="M21.03,23l-.005-.145a9.438,9.438,0,0,0-4.146-7.77,8.99,8.99,0,0,0-5.27-1.658c-.236,0-.478.009-.718.025A9.488,9.488,0,0,0,2.1,22.847l0,.147H0l.009-.158A12.427,12.427,0,0,1,2.153,16.2a12.534,12.534,0,0,1,5.289-4.126A6.641,6.641,0,0,1,4.856,7.089,6.884,6.884,0,0,1,6.962,1.8,6.873,6.873,0,0,1,11.582,0a6.682,6.682,0,0,1,4.766,1.985,6.789,6.789,0,0,1-.7,10.1,11.613,11.613,0,0,1,6.34,5.882,11.218,11.218,0,0,1,1.089,4.881V23ZM6.917,6.691a4.644,4.644,0,1,0,4.671-4.629h-.023A4.653,4.653,0,0,0,6.917,6.691Z" transform="translate(1446 43)"/><text class="a" transform="translate(1429 88)"><tspan x="0" y="0">ACCOUNT</tspan></text></g></svg>